C:\GBW_MyPrograms\KinderuniversiteitApp\Resultaten\TymenKool\SpongeBob\SpongeBob_v1.mot
version=1
nRows=8
nColumns=29
inDegrees=yes
endheader
                time	         pelvis_tilt	           pelvis_tx	           pelvis_ty	       hip_flexion_l	       hip_flexion_r	        knee_angle_l	        knee_angle_r	       ankle_angle_l	       ankle_angle_r	    lumbar_extension	hamstrings_r/activation	bifemsh_r/activation	glut_max_r/activation	iliopsoas_r/activation	rect_fem_r/activation	  vasti_r/activation	gastroc_r/activation	 soleus_r/activation	tib_ant_r/activation	hamstrings_l/activation	bifemsh_l/activation	glut_max_l/activation	iliopsoas_l/activation	rect_fem_l/activation	  vasti_l/activation	gastroc_l/activation	 soleus_l/activation	tib_ant_l/activation	
          0.46122512	         -9.04627823	          0.61342941	          0.89483307	         28.36669309	         -6.37331273	         -2.73465510	        -12.40339819	          8.01948604	          5.56340257	          2.06099633	          0.05001359	          0.24593853	          0.05000381	          0.87850455	          0.05000539	          0.05000096	          0.28975209	          0.58038054	          0.05000077	          0.37483978	          0.05003020	          0.09443513	          0.05000636	          0.07677983	          0.06787794	          0.05004428	          0.05766261	          0.30085795	
          0.47044962	         -9.03537057	          0.62842153	          0.89414659	         27.44900993	         -5.87099172	         -2.18572972	        -15.03437077	          7.77321021	          4.76569274	          2.37874107	          0.05003023	          0.21316762	          0.05000249	          0.76144039	          0.05000311	          0.05000059	          0.25114134	          0.50304219	          0.05000048	          0.34297115	          0.05001491	          0.13121740	          0.05000267	          0.06654940	          0.06666244	          0.05000108	          0.05000088	          0.34310048	
          0.47967412	         -9.02343855	          0.64348121	          0.89337268	         26.56276525	         -5.15646032	         -2.24196580	        -18.02062908	          7.41199549	          3.74996684	          2.70644970	          0.08642292	          0.18476345	          0.05000159	          0.65997505	          0.05000231	          0.05000049	          0.21767564	          0.43600943	          0.05000041	          0.31076968	          0.05015755	          0.18408503	          0.05000258	          0.05768225	          0.05778063	          0.06655831	          0.05795113	          0.33434882	
          0.48889863	         -9.01492144	          0.65839567	          0.89267859	         25.69207221	         -4.19891319	         -2.42904663	        -21.34293973	          7.02646610	          2.35066796	          3.02155693	          0.07491540	          0.16014410	          0.05002736	          0.57203039	          0.05000175	          0.05000054	          0.18866940	          0.37790910	          0.05000028	          0.27287989	          0.06654324	          0.29089270	          0.05000124	          0.05000196	          0.05008251	          0.05768971	          0.05022923	          0.44168995	
          0.49812313	         -9.01556363	          0.67288325	          0.89232085	         24.88620981	         -2.97941099	         -2.63940569	        -24.94649561	          6.51299736	          0.49336895	          3.29409532	          0.06493628	          0.13880551	          0.05007572	          0.49580475	          0.17021379	          0.05000174	          0.16352838	          0.32755091	          0.38207194	          0.26007023	          0.05768544	          0.38089157	          0.05000097	          0.05000207	          0.14100999	          0.05000518	          0.05000216	          0.48311738	
          0.50734763	         -9.02777342	          0.68675968	          0.89238783	         24.16489235	         -1.56944526	         -2.91490774	        -28.66002104	          6.08360882	         -1.20092566	          3.50322950	          0.05628992	          0.12031270	          0.05000753	          0.42973662	          0.33615016	          0.05000102	          0.14173767	          0.28390321	          0.36810098	          0.23340532	          0.05003043	          0.40568079	          0.05000092	          0.05000218	          0.19639011	          0.05000266	          0.05000210	          0.51626105	
          0.51657213	         -9.05172043	          0.70000806	          0.89293799	         23.51152602	         -0.07785137	         -3.23235415	        -32.20943997	          5.79610165	         -1.75282525	          3.64727936	          0.05002172	          0.10862899	          0.05000143	          0.37247252	          0.46504930	          0.05000066	          0.12285100	          0.24607180	          0.46606603	          0.21966855	          0.05002872	          0.39820676	          0.05000126	          0.05000296	          0.21194019	          0.05000484	          0.05000511	          0.50425294	
          0.52579664	         -9.08499897	          0.71272498	          0.89401188	         22.90072201	          1.43530434	         -3.56447333	        -35.41734591	          5.66756710	         -1.87229281	          3.73617575	          0.05003693	          0.16970542	          0.05000127	          0.32283963	          0.57537001	          0.05000059	          0.10648195	          0.21328163	          0.47311029	          0.20644556	          0.05002886	          0.38288870	          0.05000143	          0.05000346	          0.21536279	          0.05000566	          0.05000757	          0.48210121	
